
<global>
amp_veltrack=0
ampeg_attack=0.005
ampeg_release=0.65
</global>

<group>
group_label=PP
lpc_hicc1=42
lpc_locc1=0

<region>
hikey=A3
hivel=127
lokey=G#3
loop_end=208852
loop_mode=loop_continuous
loop_start=59144
loop_xfade=32186
lovel=1
lpc=+JIkQp5klMKHcbhBkNDYPcs7YkE9z7s+nDxGP5ie+b8eFnM+E0f0v9WpYL/zMA/AmeHYv5YvJT+c/q8/smtFP94oaz/LECA/hQztvmRPGb5x1KO+Mg+zPr83Rb+HlV0+
lpc_rms=-64.33
offset=13550
pitch_keycenter=G#3
sample=Basstrombone_mute_PP_G#4.opus
tune=-1
volume=6
</region>

<region>
hikey=A2
hivel=127
lokey=G#2
loop_end=191181
loop_mode=loop_continuous
loop_start=59144
loop_xfade=32186
lovel=1
lpc=Ym/ZQcYDMMJKbBFBvRD6vmcxGEGGXWk/H0/fP4H0ob+W8u6+xelGv9KwYr9oeom/tUDvvpJzyD25s58+/LIFvSYoAz/yHGK8yRbePRbwXj+FNlk8m38WPZaUor5Sjc2+
lpc_rms=-69.09
offset=13019
pitch_keycenter=G#2
sample=Basstrombone_mute_PP_G#3.opus
tune=-21
volume=6
</region>

<region>
hikey=A1
hivel=127
lokey=G#1
loop_end=198147
loop_mode=loop_continuous
loop_start=59144
loop_xfade=32186
lovel=1
lpc=Wvf6QfgabcICuq9Bq3XDP50bJUGDxSHAWDgkv8vgEsBU7Hw/2BxSv+3s5r6U/qC/ofWOPj+4nD5yscM+u02xPt0oyr3udZK9UkXXPpLVS77qeFc+w4vAvOJ3KD7GiuO+
lpc_rms=-66.27
offset=14661
pitch_keycenter=G#1
sample=Basstrombone_mute_PP_G#2.opus
tune=-23
volume=6
</region>

<region>
hikey=G3
hivel=127
lokey=F#3
loop_end=201468
loop_mode=loop_continuous
loop_start=59144
loop_xfade=32186
lovel=1
lpc=Oq0oQmJHk8L09pdBhQUKQHjIbkHGXh8/8KwBP2uJIsAVMiW/LzCMvzL2tb/oLMG//mopv+RgyT4C6Sk/vbeTPy8RwT6q0Bs+dzAXv/PIwL1VjCw/hP3VPvWuEj+48bO/
lpc_rms=-64.58
offset=10408
pitch_keycenter=F#3
sample=Basstrombone_mute_PP_F#4.opus
tune=-5
volume=6
</region>

<region>
hikey=G2
hivel=127
lokey=F#2
loop_end=190697
loop_mode=loop_continuous
loop_start=59144
loop_xfade=32186
lovel=1
lpc=/pa9QbEoCcJM4p9Ar6z/v3XVxUDZgaE/WcL7P5FcgLx6pew+ZQSevmZlur4OMWK/HBUXvxwIBr9Tvse+q9AbvmhI2b128h29S6gBP/TRtT7r5Yc/XfbbPoIPoj0JC5W/
lpc_rms=-71.09
offset=13686
pitch_keycenter=F#2
sample=Basstrombone_mute_PP_F#3.opus
tune=-12
volume=6
</region>

<region>
hikey=G1
hivel=127
lokey=F#1
loop_end=198894
loop_mode=loop_continuous
loop_start=59144
loop_xfade=32186
lovel=1
lpc=2ZHuQYC+QMJfZzdBtTuHPYilDUEiN3u+2jaoPj2zFr8jOwg/Ec25vq+F1r6FMcG/hsFDv6GcmT6vsU0+Z9/APhfDfT4/U+u+wBOrvvm0Uz4yKhc/u98tPz9c8z7uDpi/
lpc_rms=-68.19
offset=14929
pitch_keycenter=F#1
sample=Basstrombone_mute_PP_F#2.opus
tune=-12
volume=6
</region>

<region>
hikey=F3
hivel=127
lokey=E3
loop_end=199908
loop_mode=loop_continuous
loop_start=59144
loop_xfade=32186
lovel=1
lpc=Vr8YQicPhsJt15JBur+XP8DVXUGW2zQ+PkIsP06QEMDIM6G/sxewv/J6fr8xE3C++dMvPgtd0z75/pk9Fs46unL6xb743qS41uKIPvkW2z5gIW0/D2I+vDHNRL5U7WK/
lpc_rms=-65.45
offset=12026
pitch_keycenter=E3
sample=Basstrombone_mute_PP_E4.opus
tune=-24
volume=6
</region>

<region>
hikey=F2
hivel=127
lokey=E2
loop_end=205626
loop_mode=loop_continuous
loop_start=59144
loop_xfade=32186
lovel=1
lpc=FrsaQg1sesIhQD5B/qgCP4z7W0E2VwhAd4jkP6287L9JcNS/fRYKwG5dhb/pMky/bd2Vvg3+ET/7XI4/HykdP8CLRb7FUS6/htcQv8CDSj5iTV8/08s+P1oxij/ofQHA
lpc_rms=-66.06
offset=9688
pitch_keycenter=E2
sample=Basstrombone_mute_PP_E3.opus
tune=-17
volume=6
</region>

<region>
hikey=F1
hivel=127
lokey=E1
loop_end=177450
loop_mode=loop_continuous
loop_start=56821
loop_xfade=30922
lovel=1
lpc=ZUgDQno+UMJ5fjJBExKJvwYyJ0G3SPU+/gm9P8pjj7/88SM+3EWWvn9Bhr9JBlK/si9Uv+y/JD7k3KU9K85NPqmSs756mzC+tKBDPvtc5j5Znw4/TiE0PwlLlL7jrj+/
lpc_rms=-67.57
offset=10389
pitch_keycenter=E1
sample=Basstrombone_mute_PP_E2.opus
tune=-12
volume=6
</region>

<region>
hikey=D#3
hivel=127
lokey=D3
loop_end=190880
loop_mode=loop_continuous
loop_start=59144
loop_xfade=32186
lovel=1
lpc=kthCQu2DpsLBt5VB2LGKP56RlEEyfjtAnwXiP6Sw+7/Gbv6/zSFEwHB0A8Ctah7AOYQnv++cJz/JKM8/GlGAP+kKQj/c0hc/76J9P5VArz7hyiG/FXrTvzHdU8Dlul1A
lpc_rms=-63.70
offset=13778
pitch_keycenter=D3
sample=Basstrombone_mute_PP_D4.opus
tune=-35
volume=6
</region>

<region>
hikey=D#2
hivel=127
lokey=D2
loop_end=203986
loop_mode=loop_continuous
loop_start=59144
loop_xfade=32186
lovel=1
lpc=gUceQhTvisKU7ZJBTOzFPxVAbEHX/a8+HN2HP9KZHsBSr6+/0vKqv4/w0L/AAZu//VhsvkuOXD+6FvE+3vxwP/wUxT4HnRK/jtL1Pl8ndz7JsFQ+IAJTv5TGF7+oACE/
lpc_rms=-65.21
offset=14263
pitch_keycenter=D2
sample=Basstrombone_mute_PP_D3.opus
tune=-13
volume=6
</region>

<region>
hikey=C#3
hivel=127
lokey=C3
loop_end=194621
loop_mode=loop_continuous
loop_start=59144
loop_xfade=32186
lovel=1
lpc=8d/9QcXHWcInDl5B89t3P47eL0GJ1fQ+VLG9PiqEzL8j9wW/cjY7vwiFXr8Ozn2/GWSbvkgwMz+UxiU/+sfOPXGOI7+GDm2+fMPPvj4tvT7AcJM/GE8bPwiBYD96KPe/
lpc_rms=-67.26
offset=14553
pitch_keycenter=C3
sample=Basstrombone_mute_PP_C4.opus
tune=-29
volume=6
</region>

<region>
hikey=C#2
hivel=127
lokey=C2
loop_end=199433
loop_mode=loop_continuous
loop_start=59144
loop_xfade=32186
lovel=1
lpc=Lp/mQS3WRsL+DE1BwwbfP6SlHUGPJwK+n19qPnDD7b/JZfW+Kh5Sv/ui4b6i2Tm/WByKPnoRDr6YuQI/4gFCvhSkRj4ZPL+9p9INPkhuuj6UAnA+asoWPgOhPb3GxAG/
lpc_rms=-68.04
offset=15416
pitch_keycenter=C2
sample=Basstrombone_mute_PP_C3.opus
tune=-3
volume=6
</region>

<region>
hikey=C4
hivel=127
lokey=A#3
loop_end=201208
loop_mode=loop_continuous
loop_start=77857
loop_xfade=42370
lovel=1
lpc=e548QoKrssJsyARCN3avvZWmjkHZ4WPATUSRv9NqKMD2DyU/PdwcwBgRkbx5kDK/XozHPKlDvD+My5U/c5u4v+BYer6kPQE/6rfsv9vN573kLhlAsE9aP1Ms57yYnMS/
lpc_rms=-63.09
offset=12000
pitch_keycenter=A#3
release_start=210510
release_xfade=6047
sample=Basstrombone_mute_PP_A#4.opus
tune=-11
volume=6
</region>

<region>
hikey=B2
hivel=127
lokey=A#2
loop_end=192561
loop_mode=loop_continuous
loop_start=59144
loop_xfade=32186
lovel=1
lpc=D24IQnn+YMKfi0FBhYaXvklyOkGz4fU/izjzP9o84L8om7G+dTa5v8HVh7/8wa2/St0Cv7hCHT/tnAO9390gP1EBCb+FnJk+t9TdvH7qnT/pWxI+Qg2/PT8pTr8xZHq9
lpc_rms=-66.94
offset=15231
pitch_keycenter=A#2
sample=Basstrombone_mute_PP_A#3.opus
tune=-26
volume=6
</region>

<region>
hikey=B1
hivel=127
lokey=A#1
loop_end=194024
loop_mode=loop_continuous
loop_start=59144
loop_xfade=32186
lovel=1
lpc=cVQKQgSnb8IM1YVBM2uePy4DPUHwHJm/3i9BvXu1778WbME9ON0MPYkMS7+BcFW/asAcv9E7uz6i0DW+pCYdP/JfD7+FqrQ+/vOovm7VyT5qI0U/DO0zPmAw6T5/pJi/
lpc_rms=-66.41
offset=12019
pitch_keycenter=A#1
sample=Basstrombone_mute_PP_A#2.opus
tune=-30
volume=6
</region>
</group>

<group>
group_label=MF
lpc_hicc1=84
lpc_locc1=43

<region>
hikey=A3
hivel=127
lokey=G#3
loop_end=203763
loop_mode=loop_continuous
loop_start=70553
loop_xfade=32186
lovel=1
lpc=HvGHQkP+TcOo/mND52nKwvAjY0EJ8AzBHYUtQN/HEEGW7Uk+9pBhwXN1H0HW7epAc11bwcoLJ0DJ1P4/plqnQKrWQcBuaqPAgHEKv5mZwUAOQc5Ae6VxwRoPBEHcdra/
lpc_rms=-43.46
offset=17890
pitch_keycenter=G#3
sample=Basstrombone_mute_MF_G#4.opus
tune=-13
</region>

<region>
hikey=A2
hivel=127
lokey=G#2
loop_end=194068
loop_mode=loop_continuous
loop_start=75494
loop_xfade=32186
lovel=1
lpc=pU2ZQrNta8MS34RD9eUBw9szGUL3XuvB39qiQaLcZ8HwXKBBXEJmwdyuTUCTdyhAIRTewHil4UBsfvLAS6XBQL2Ok0AC7vjAqwpTP6sbiz952BFA8Tp2wL+EJ0AGdDa/
lpc_rms=-48.70
offset=15746
pitch_keycenter=G#2
release_start=203662
release_xfade=6325
sample=Basstrombone_mute_MF_G#3.opus
tune=-20
</region>

<region>
hikey=A1
hivel=127
lokey=G#1
loop_end=145631
loop_mode=loop_continuous
loop_start=59144
loop_xfade=32186
lovel=1
lpc=rOl1QisAMsOikDNDM/GIwvGEhUESq5HB/lpSQdUQfcGkQkVBqd5JvOSiJT+h4KfAXx1EQIk6EUCPWwXBG2DKQNCeF0C3BQLA+WWbwOewh0CLRYJAbdj+wBWgekDTJ46+
lpc_rms=-52.87
offset=16206
pitch_keycenter=G#1
release_start=152579
release_xfade=5233
sample=Basstrombone_mute_MF_G#2.opus
tune=-22
</region>

<region>
hikey=G3
hivel=127
lokey=F#3
loop_end=196930
loop_mode=loop_continuous
loop_start=59144
loop_xfade=32186
lovel=1
lpc=KWDkQjZItsPie9dDr6JZw/zpQkIVG/7BziYdQlh24cFozoRB7ggnwQTuZsDyDE1B/dWRwI6E/kDEQo7BlPWIQBMBLEF3twXA5X/6wMi3rMB38o1Bfa8wv3EhecGfHftA
lpc_rms=-43.40
offset=20024
pitch_keycenter=F#3
sample=Basstrombone_mute_MF_F#4.opus
tune=-28
</region>

<region>
hikey=G2
hivel=127
lokey=F#2
loop_end=192298
loop_mode=loop_continuous
loop_start=59144
loop_xfade=32186
lovel=1
lpc=CnqhQkV7gMMBd5xDK54vw1h4SUIk29HBUhr7QTF0+sHfgQpCFs0CwoEPjUGq6s+/GnbBwH/t0kC/GLbA2rBGQI30dz+0kKA+nIJCwNfcoEBFSBnBsA8xQTyn0MAkNd4/
lpc_rms=-47.56
offset=18233
pitch_keycenter=F#2
release_start=201396
release_xfade=4234
sample=Basstrombone_mute_MF_F#3.opus
tune=-20
</region>

<region>
hikey=G1
hivel=127
lokey=F#1
loop_end=138500
loop_mode=loop_continuous
loop_start=59144
loop_xfade=32186
lovel=1
lpc=380yQidt68IeIsZCF0SzwSBDvUCKolvB2NOYQNBd/b+w6B1A7PzwvxzzEkBtFrG+dfzRv9t4OkATNPu/aajnv236zz+bJYU/CucBwN/cuD+Os3c/SAwqwNtp/z/tCDq/
lpc_rms=-58.03
offset=17666
pitch_keycenter=F#1
release_start=145792
release_xfade=5093
sample=Basstrombone_mute_MF_F#2.opus
tune=-20
</region>

<region>
hikey=F3
hivel=127
lokey=E3
loop_end=199451
loop_mode=loop_continuous
loop_start=59144
loop_xfade=32186
lovel=1
lpc=kwvbQsNvp8Nk5rlD8S4yw96wiUL7c3/ClrLwQYG9iMECjPFBmNw1wUuJqsBB80W/OW1kwESrhEE5Vp/BEOAWQcI0zkDsfKW/anwswYGlq8CVJbhB7FedwVL0SkFulaTA
lpc_rms=-43.21
offset=17676
pitch_keycenter=E3
sample=Basstrombone_mute_MF_E4.opus
tune=-14
</region>

<region>
hikey=F2
hivel=127
lokey=E2
loop_end=187891
loop_mode=loop_continuous
loop_start=59144
loop_xfade=32186
lovel=1
lpc=+FaIQs17YsM5dJBDMmgjw8SGIUIVT8rBm9baQRjYI8EEVNhAvNMCwQhLYUDrWEfAZfwlQHXbpkBmExHBgLE8QNHlJEA+/q2+bmCHwBJK9j9O8t9AoQVSwQIBJkEY3VPA
lpc_rms=-49.19
offset=15965
pitch_keycenter=E2
release_start=193072
release_xfade=5439
sample=Basstrombone_mute_MF_E3.opus
tune=-18
</region>

<region>
hikey=F1
hivel=127
lokey=E1
loop_end=118964
loop_mode=loop_continuous
loop_start=66698
loop_xfade=32186
lovel=1
lpc=W68sQluw38JLDbNCRRx0wawwm0BHK2HBpcCwP/DmnT5MEVdAbvbZPsTsu75UHKm//MqVv0EPKkAZgOa/64ZyvwH2SUD+S5C/WDIYwDtK1D8zrpg/d3aqv5NJ2j7p1n6+
lpc_rms=-59.00
offset=26474
pitch_keycenter=E1
release_start=135786
release_xfade=7595
sample=Basstrombone_mute_MF_E2.opus
tune=-6
</region>

<region>
hikey=D#3
hivel=127
lokey=D3
loop_end=206054
loop_mode=loop_continuous
loop_start=59144
loop_xfade=32186
lovel=1
lpc=3CfGQgRZncOyrLVDYcgqw7oHEUJEjAPC6z3LQXvPacEw/fhBBrvtwWNM/T6f4z5BAMjvwGGJBEESMubAReOsP4r7OkC9/7U/MkwbwTpviEDzRQ5BQD4+wWpVxkCwtLK/
lpc_rms=-45.13
offset=17146
pitch_keycenter=D3
sample=Basstrombone_mute_MF_D4.opus
tune=-21
</region>

<region>
hikey=D#2
hivel=127
lokey=D2
loop_end=187891
loop_mode=loop_continuous
loop_start=59144
loop_xfade=32186
lovel=1
lpc=T32MQm/2W8NTlXRDCDXAwjkGB0HqYuHBPk+4QdUs/r9cpwJBJA9cwI89CcF1kzjAgOElQfXvRkAT4MbA+GeVwOUXoUAi688/FXcSwOmvED7BWr0/PJ71v7HnIz9/Cgw+
lpc_rms=-51.20
offset=13489
pitch_keycenter=D2
release_start=196239
release_xfade=6295
sample=Basstrombone_mute_MF_D3.opus
tune=-20
</region>

<region>
hikey=C#3
hivel=127
lokey=C3
loop_end=209530
loop_mode=loop_continuous
loop_start=59144
loop_xfade=32186
lovel=1
lpc=AYGcQmiAgMO186FDd/4/w+Enh0JNjwrCGPhoQZtyvsClXLZBjh7GwQsp3kAkHiZAxxeFwJ7ml0ALFB6/7vwvwBfnjj/nvXhAO7AAwV7qSkBjbchAr8aqwPAzor9oifw/
lpc_rms=-47.68
offset=16976
pitch_keycenter=C3
sample=Basstrombone_mute_MF_C4.opus
tune=-19
</region>

<region>
hikey=C#2
hivel=127
lokey=C2
loop_end=183531
loop_mode=loop_continuous
loop_start=68894
loop_xfade=32186
lovel=1
lpc=KDiDQrKbU8N/CnpD3kvZwsabwr8FITrBmrzVQclUz8BuET9AY8S7wAFSUcCBDItAaZlQQNMrFcCE3RnA7gGHP3jFoj8T0LK/YdIuP/tgSr++yIJADpPDwHdbdkBHZH+/
lpc_rms=-51.55
offset=21424
pitch_keycenter=C2
release_start=188572
release_xfade=6986
sample=Basstrombone_mute_MF_C3.opus
tune=-7
</region>

<region>
hikey=C4
hivel=127
lokey=A#3
loop_end=181293
loop_mode=loop_continuous
loop_start=63053
loop_xfade=13946
lovel=1
lpc=PLbjQoy1rMORqMZDGZhow5II60LqIqvCrmRQQtUF78H0vwZCsrjnwZu0IEHtjZRAHzqqwe1mn0HQ077AhBsGQRrQzsCECq4/1IQOwcC5k0BmoiZBDXR+wIv9BcG1KaRA
lpc_rms=-44.27
offset=22601
pitch_keycenter=A#3
release_start=210399
release_xfade=11800
sample=Basstrombone_mute_MF_A#4.opus
tune=-20
</region>

<region>
hikey=B2
hivel=127
lokey=A#2
loop_end=200775
loop_mode=loop_continuous
loop_start=73899
loop_xfade=32186
lovel=1
lpc=QAPeQvp+rMP/Yb1DdyMiw4suQkIuw2/CR2DiQYo9JsGfJ+lB2cZ2wfFQGsHj6UNBrf0Mwftt3kCSxJ3A2/qevxy2zkCNJDRAgA4CwWhlKcDumM9AbQqVPzP7esBjEbQ/
lpc_rms=-45.46
offset=14879
pitch_keycenter=A#2
sample=Basstrombone_mute_MF_A#3.opus
tune=-21
</region>

<region>
hikey=B1
hivel=127
lokey=A#1
loop_end=185193
loop_mode=loop_continuous
loop_start=70400
loop_xfade=32186
lovel=1
lpc=0RupQkIghcP4/ppDOL8aw9zWLkI4iBLCqTjXQSRlWcFlhl5BNVjywM3/GUC1B0vAPXiyPhclNT/hK42+kO1yQOjOr8BmvClA7dwzvz9jEz9SHA1Ar51uwP+dVD+ETCU/
lpc_rms=-48.01
offset=10049
pitch_keycenter=A#1
release_start=194874
release_xfade=3259
sample=Basstrombone_mute_MF_A#2.opus
tune=-25
</region>
</group>

<group>
group_label=FF
lpc_hicc1=127
lpc_locc1=85

<region>
hikey=A3
hivel=127
lokey=G#3
loop_end=184093
loop_mode=loop_continuous
loop_start=65160
loop_xfade=32186
lovel=1
lpc=NnJJQdALFMLPjV5Cc1V1wpYea0K8K03CdVkuQgdeEcLFI+9B8MS1wR7/f0HcpTLBwr0WQapXFcEt3itB2rJAwbtaSUGsADrBPC4dQSJS+MBig7lA5mdSwEPCoT9hlzO+
lpc_rms=-35.27
offset=12520
pitch_keycenter=G#3
release_start=194556
release_xfade=4997
sample=Basstrombone_mute_FF_G#4.opus
tune=-20
</region>

<region>
hikey=A2
hivel=127
lokey=G#2
loop_end=156721
loop_mode=loop_continuous
loop_start=42255
loop_xfade=14348
lovel=1
lpc=Zk2KQZb2XcL4wa9Cq4K/wu29rEKn7o7Ct5VnQq/9N8KKLBVCWc72wYJYy0H2fpfBHsA3QcQUhcAAgW++t5C2PwYtu7+nwxNAeEAbwO5NMj8TAaQ/ZTa6v5zgJD88Mru9
lpc_rms=-39.31
offset=17439
pitch_keycenter=G#2
release_start=162574
release_xfade=3766
sample=Basstrombone_mute_FF_G#3.opus
tune=-14
</region>

<region>
hikey=A1
hivel=127
lokey=G#1
loop_end=126361
loop_mode=loop_continuous
loop_start=63174
loop_xfade=32186
lovel=1
lpc=OY+NQT6yW8I9n6JCIrShwkNnhUKXrEfCuYwNQpnBv8Fko4JB6ngqwVFd3kA/ioDACAWDP3xIhz8dkvO/zO0hQFelN8AGRINAbiGswEv6k0BjOBfApHRKP+aGv76rCwI+
lpc_rms=-43.40
offset=17730
pitch_keycenter=G#1
release_start=133103
release_xfade=3770
sample=Basstrombone_mute_FF_G#2.opus
tune=-21
</region>

<region>
hikey=G3
hivel=127
lokey=F#3
loop_end=175314
loop_mode=loop_continuous
loop_start=88437
loop_xfade=32186
lovel=1
lpc=eU+nQTt7dcJ5ZLFCEp+zwkjdmkK9s3jCMbBEQq2VGMK2tgFCrJnWwWWhnEF5fFDB5fQFQbvVcsB4M2W/KdHEQCFSM8HlUHRBWH+CwQmTa0FkrkLBb/8MQTJHkMCFc5A/
lpc_rms=-33.25
offset=14598
pitch_keycenter=F#3
release_start=178300
release_xfade=7297
sample=Basstrombone_mute_FF_F#4.opus
tune=-24
</region>

<region>
hikey=G2
hivel=127
lokey=F#2
loop_end=141886
loop_mode=loop_continuous
loop_start=58958
loop_xfade=32085
lovel=1
lpc=4ibBQYMTo8KbfgNDNKELwz3W70Kdb77CzWaTQludWMJ3aBVCQ1u2wTjMQEFX+pDAy3hKv4zRmEAsJNvAW1z6QCtoBMEdmRJB61QZweYzA0HhkaHA5hkLQGbTTL9TMXQ+
lpc_rms=-39.60
offset=12547
pitch_keycenter=F#2
release_start=161846
release_xfade=5426
sample=Basstrombone_mute_FF_F#3.opus
tune=-16
</region>

<region>
hikey=G1
hivel=127
lokey=F#1
loop_end=106453
loop_mode=loop_continuous
loop_start=59144
loop_xfade=32186
lovel=1
lpc=K6TGQchipMKe5/tCODvwwsxqpEIJcS3CLkOWQSWW28ANOhFAd7QavrpyV76xtGq+7UVTPxHmPL8K8KE+X8rRvhM8fD+ufce+BUTGvye1/T849iA8wz7wv3aZ7T8KOTW/
lpc_rms=-46.02
offset=12166
pitch_keycenter=F#1
release_start=113427
release_xfade=4515
sample=Basstrombone_mute_FF_F#2.opus
tune=-27
</region>

<region>
hikey=F3
hivel=127
lokey=E3
loop_end=154171
loop_mode=loop_continuous
loop_start=58776
loop_xfade=31986
lovel=1
lpc=BMy+QeefncJesABDWsAPw7znAUOqQdDCQt6jQmrqg8KiFF1CuRg0whiI+EGXMXPBugiHQIgUSkAS0ffATpEhQdWYJcE0jxpBvin4wNi/nUCMXAi/E8VdwG5UUkDcSTS/
lpc_rms=-34.50
offset=13194
pitch_keycenter=E3
release_start=173518
release_xfade=3928
sample=Basstrombone_mute_FF_E4.opus
tune=-19
</region>

<region>
hikey=F2
hivel=127
lokey=E2
loop_end=127925
loop_mode=loop_continuous
loop_start=62861
loop_xfade=32186
lovel=1
lpc=l1SyQUF5k8LWA+1CQekAw2H+4UK87qzCYQd1QlmzJMI8PdNBrl95wfbyEEH0PKHA7XUkQJk94r6YFfW+ZT4SP897Sr85ITBAKSWpwOraqUBqESnAUckOPwIohb7EgbU+
lpc_rms=-42.11
offset=15112
pitch_keycenter=E2
release_start=129719
release_xfade=5576
sample=Basstrombone_mute_FF_E3.opus
tune=-20
</region>

<region>
hikey=F1
hivel=127
lokey=E1
loop_end=100524
loop_mode=loop_continuous
loop_start=56821
loop_xfade=30922
lovel=1
lpc=8jKwQf/AisJ9nsVC7Qeswh4hV0Jzk9DBx40lQUNPi8AuvndA+JCEwKLwdUBnrTzAzU8GQIOGZ79VBgG/ysZLP6Oprz510HK/L0kLvoyZYD/GRQS/WrQdPlmOF77ooBU9
lpc_rms=-48.20
offset=7136
pitch_keycenter=E1
release_start=103615
release_xfade=4134
sample=Basstrombone_mute_FF_E2.opus
tune=-20
</region>

<region>
hikey=D#3
hivel=127
lokey=D3
loop_end=151303
loop_mode=loop_continuous
loop_start=76447
loop_xfade=31773
lovel=1
lpc=3c6CQVG+RMIxd5JCyL+Ywg24hEL0BVPCy24jQpdY78EUkqxBBohuwZFSC0F0gvq/ZUOIwHyhAEE0qgPBr5nXQKDFz8AukQBBz+kPwaXX9UBKJZrANpYRQOiqML/XHOS9
lpc_rms=-37.04
offset=13688
pitch_keycenter=D3
release_start=155226
release_xfade=7041
sample=Basstrombone_mute_FF_D4.opus
tune=-19
</region>

<region>
hikey=D#2
hivel=127
lokey=D2
loop_end=125393
loop_mode=loop_continuous
loop_start=48742
loop_xfade=18170
lovel=1
lpc=pjwtQadS7cFhRB1CxMoQwmT77kGeQL/BZD6YQR+2bcE2xTxBlWoLwe8GxUC7i23ADUK1PzOZGj+ZwbC/4InLP6HUAcCD/S9AiDo0wKPO1T+qfJy+hi2QvrUTjz4zhzC+
lpc_rms=-43.51
offset=13858
pitch_keycenter=D2
release_start=130333
release_xfade=4466
sample=Basstrombone_mute_FF_D3.opus
tune=-22
</region>

<region>
hikey=C#3
hivel=127
lokey=C3
loop_end=146400
loop_mode=loop_continuous
loop_start=65210
loop_xfade=31821
lovel=1
lpc=3LOGQWOrU8JF2KVCvTi6wiqms0I7cp7C/EiEQmLyUMJQbR5CsvPlwdJ5okE47FTBddXpQCn7E8BFB4G/bbdzQLPb1MAeKg1BWcUVwf5d7kDzaHTAkNizP2nVLb+xS7E+
lpc_rms=-37.48
offset=10824
pitch_keycenter=C3
release_start=152291
release_xfade=3449
sample=Basstrombone_mute_FF_C4.opus
tune=-11
</region>

<region>
hikey=C#2
hivel=127
lokey=C2
loop_end=117366
loop_mode=loop_continuous
loop_start=45132
loop_xfade=19491
lovel=1
lpc=ukVYQYUNI8I1Y3ZC02mEwlQudUJVuFHCwOErQnNeCMJWU9lBJimswUATi0E2KVfBuoYdQdFx28Akk5xASjc6wBf2hD/I2Ag/JSa4v0PKMj+Vczc/wnsbv2I9gr2+V089
lpc_rms=-43.25
offset=13125
pitch_keycenter=C2
release_start=122051
release_xfade=5389
sample=Basstrombone_mute_FF_C3.opus
tune=-12
</region>

<region>
hikey=C4
hivel=127
lokey=A#3
loop_end=187101
loop_mode=loop_continuous
loop_start=70417
loop_xfade=38321
lovel=1
lpc=x6DJQSMfpcJYrwZDE8AYw6iPD0MAXPDCd7y9Qk30ncIGhY9C3bxzwqc9NkJAof3ByJqgQT262sA3Ma7AEOpvQXMDt8EWcf5BE4UewlARI0KL9hTCWcr0QXuDlMGLQ75A
lpc_rms=-30.70
offset=970
pitch_keycenter=A#3
release_start=193935
release_xfade=4840
sample=Basstrombone_mute_FF_A#4.opus
tune=-16
</region>

<region>
hikey=B2
hivel=127
lokey=A#2
loop_end=148004
loop_mode=loop_continuous
loop_start=29059
loop_xfade=8772
lovel=1
lpc=jPmwQdRdlcKGz/VCeigIw1na8EI8nLrCr4KJQjvxTsJfSyZCv+UAwpW2q0HamS/BwE+AQOdL9r6/Yl6/ZKHLP1c2AMDLgoVADGrtwIO8BEFuzsXAzoduQMZuBMAfjVo/
lpc_rms=-38.30
offset=7233
pitch_keycenter=A#2
release_start=156773
release_xfade=8389
sample=Basstrombone_mute_FF_A#3.opus
tune=-13
</region>

<region>
hikey=B1
hivel=127
lokey=A#1
loop_end=104946
loop_mode=loop_continuous
loop_start=40884
loop_xfade=15854
lovel=1
lpc=YTSiQQU0iMLHPdxC5kXrwpdUyEL1hJnCfrhgQoP+FsKqEapBhFTawN6SSMCegwNBFCMXwcUSBkFc1rHACVu6P34BEkDW/TbAfpCwPmxf6z/pGNy/jawVP7OYOz0z8Sa+
lpc_rms=-42.70
offset=12784
pitch_keycenter=A#1
release_start=136402
release_xfade=6250
sample=Basstrombone_mute_FF_A#2.opus
tune=-44
</region>
</group>